<mxfile host="Electron" modified="2023-11-08T12:45:06.610Z" agent="Mozilla/5.0 (Macintosh; Intel Mac OS X 10_15_7) AppleWebKit/537.36 (KHTML, like Gecko) draw.io/22.0.3 Chrome/114.0.5735.289 Electron/25.8.4 Safari/537.36" etag="hH7LXpeyYgzztz2cKhf6" version="22.0.3" type="device">
  <diagram id="R4gmmzD5P529rWG5FQW-" name="Page-1">
    <mxGraphModel dx="3209" dy="1305" grid="1" gridSize="10" guides="1" tooltips="1" connect="1" arrows="1" fold="1" page="1" pageScale="1" pageWidth="1169" pageHeight="827" math="0" shadow="0">
      <root>
        <mxCell id="0" />
        <mxCell id="1" parent="0" />
        <mxCell id="BvnUhjGTG6fRbxhW36Op-47" value="class" style="shape=table;html=1;whiteSpace=wrap;startSize=30;container=1;collapsible=0;childLayout=tableLayout;fixedRows=1;rowLines=0;fontStyle=1;align=center;" parent="1" vertex="1">
          <mxGeometry x="60" y="10" width="240" height="180" as="geometry" />
        </mxCell>
        <mxCell id="BvnUhjGTG6fRbxhW36Op-48" value="" style="shape=partialRectangle;html=1;whiteSpace=wrap;collapsible=0;dropTarget=0;pointerEvents=0;fillColor=none;top=0;left=0;bottom=1;right=0;points=[[0,0.5],[1,0.5]];portConstraint=eastwest;" parent="BvnUhjGTG6fRbxhW36Op-47" vertex="1">
          <mxGeometry y="30" width="240" height="60" as="geometry" />
        </mxCell>
        <mxCell id="BvnUhjGTG6fRbxhW36Op-49" value="PK" style="shape=partialRectangle;html=1;whiteSpace=wrap;connectable=0;fillColor=none;top=0;left=0;bottom=0;right=0;overflow=hidden;" parent="BvnUhjGTG6fRbxhW36Op-48" vertex="1">
          <mxGeometry width="40" height="60" as="geometry" />
        </mxCell>
        <mxCell id="BvnUhjGTG6fRbxhW36Op-50" value="class_id(INT PRIMARY KEY AUTO_INCREMENT&lt;br&gt;)" style="shape=partialRectangle;html=1;whiteSpace=wrap;connectable=0;fillColor=none;top=0;left=0;bottom=0;right=0;align=left;spacingLeft=6;overflow=hidden;" parent="BvnUhjGTG6fRbxhW36Op-48" vertex="1">
          <mxGeometry x="40" width="200" height="60" as="geometry" />
        </mxCell>
        <mxCell id="BvnUhjGTG6fRbxhW36Op-51" value="" style="shape=partialRectangle;html=1;whiteSpace=wrap;collapsible=0;dropTarget=0;pointerEvents=0;fillColor=none;top=0;left=0;bottom=0;right=0;points=[[0,0.5],[1,0.5]];portConstraint=eastwest;" parent="BvnUhjGTG6fRbxhW36Op-47" vertex="1">
          <mxGeometry y="90" width="240" height="50" as="geometry" />
        </mxCell>
        <mxCell id="BvnUhjGTG6fRbxhW36Op-52" value="" style="shape=partialRectangle;html=1;whiteSpace=wrap;connectable=0;fillColor=none;top=0;left=0;bottom=0;right=0;overflow=hidden;" parent="BvnUhjGTG6fRbxhW36Op-51" vertex="1">
          <mxGeometry width="40" height="50" as="geometry" />
        </mxCell>
        <mxCell id="BvnUhjGTG6fRbxhW36Op-53" value="class_name(VARCHAR(50))" style="shape=partialRectangle;html=1;whiteSpace=wrap;connectable=0;fillColor=none;top=0;left=0;bottom=0;right=0;align=left;spacingLeft=6;overflow=hidden;" parent="BvnUhjGTG6fRbxhW36Op-51" vertex="1">
          <mxGeometry x="40" width="200" height="50" as="geometry" />
        </mxCell>
        <mxCell id="BvnUhjGTG6fRbxhW36Op-54" value="" style="shape=partialRectangle;html=1;whiteSpace=wrap;collapsible=0;dropTarget=0;pointerEvents=0;fillColor=none;top=0;left=0;bottom=0;right=0;points=[[0,0.5],[1,0.5]];portConstraint=eastwest;" parent="BvnUhjGTG6fRbxhW36Op-47" vertex="1">
          <mxGeometry y="140" width="240" height="30" as="geometry" />
        </mxCell>
        <mxCell id="BvnUhjGTG6fRbxhW36Op-55" value="" style="shape=partialRectangle;html=1;whiteSpace=wrap;connectable=0;fillColor=none;top=0;left=0;bottom=0;right=0;overflow=hidden;" parent="BvnUhjGTG6fRbxhW36Op-54" vertex="1">
          <mxGeometry width="40" height="30" as="geometry" />
        </mxCell>
        <mxCell id="BvnUhjGTG6fRbxhW36Op-56" value="amount_of_children(INT,NOT NULL DEFAULT 30&lt;br&gt;)" style="shape=partialRectangle;html=1;whiteSpace=wrap;connectable=0;fillColor=none;top=0;left=0;bottom=0;right=0;align=left;spacingLeft=6;overflow=hidden;" parent="BvnUhjGTG6fRbxhW36Op-54" vertex="1">
          <mxGeometry x="40" width="200" height="30" as="geometry" />
        </mxCell>
        <mxCell id="BvnUhjGTG6fRbxhW36Op-58" value="student" style="shape=table;html=1;whiteSpace=wrap;startSize=30;container=1;collapsible=0;childLayout=tableLayout;fixedRows=1;rowLines=0;fontStyle=1;align=center;" parent="1" vertex="1">
          <mxGeometry x="60" y="200" width="270" height="300" as="geometry" />
        </mxCell>
        <mxCell id="BvnUhjGTG6fRbxhW36Op-59" value="" style="shape=partialRectangle;html=1;whiteSpace=wrap;collapsible=0;dropTarget=0;pointerEvents=0;fillColor=none;top=0;left=0;bottom=1;right=0;points=[[0,0.5],[1,0.5]];portConstraint=eastwest;" parent="BvnUhjGTG6fRbxhW36Op-58" vertex="1">
          <mxGeometry y="30" width="270" height="60" as="geometry" />
        </mxCell>
        <mxCell id="BvnUhjGTG6fRbxhW36Op-60" value="PK" style="shape=partialRectangle;html=1;whiteSpace=wrap;connectable=0;fillColor=none;top=0;left=0;bottom=0;right=0;overflow=hidden;" parent="BvnUhjGTG6fRbxhW36Op-59" vertex="1">
          <mxGeometry width="40" height="60" as="geometry" />
        </mxCell>
        <mxCell id="BvnUhjGTG6fRbxhW36Op-61" value="student_id(INT PRIMARY KEY AUTO_INCREMENT)" style="shape=partialRectangle;html=1;whiteSpace=wrap;connectable=0;fillColor=none;top=0;left=0;bottom=0;right=0;align=left;spacingLeft=6;overflow=hidden;" parent="BvnUhjGTG6fRbxhW36Op-59" vertex="1">
          <mxGeometry x="40" width="230" height="60" as="geometry" />
        </mxCell>
        <mxCell id="BvnUhjGTG6fRbxhW36Op-62" value="" style="shape=partialRectangle;html=1;whiteSpace=wrap;collapsible=0;dropTarget=0;pointerEvents=0;fillColor=none;top=0;left=0;bottom=0;right=0;points=[[0,0.5],[1,0.5]];portConstraint=eastwest;" parent="BvnUhjGTG6fRbxhW36Op-58" vertex="1">
          <mxGeometry y="90" width="270" height="50" as="geometry" />
        </mxCell>
        <mxCell id="BvnUhjGTG6fRbxhW36Op-63" value="" style="shape=partialRectangle;html=1;whiteSpace=wrap;connectable=0;fillColor=none;top=0;left=0;bottom=0;right=0;overflow=hidden;" parent="BvnUhjGTG6fRbxhW36Op-62" vertex="1">
          <mxGeometry width="40" height="50" as="geometry" />
        </mxCell>
        <mxCell id="BvnUhjGTG6fRbxhW36Op-64" value="name(VARCHAR(50),NOT NULL&lt;br&gt;)" style="shape=partialRectangle;html=1;whiteSpace=wrap;connectable=0;fillColor=none;top=0;left=0;bottom=0;right=0;align=left;spacingLeft=6;overflow=hidden;" parent="BvnUhjGTG6fRbxhW36Op-62" vertex="1">
          <mxGeometry x="40" width="230" height="50" as="geometry" />
        </mxCell>
        <mxCell id="BvnUhjGTG6fRbxhW36Op-94" value="" style="shape=partialRectangle;html=1;whiteSpace=wrap;collapsible=0;dropTarget=0;pointerEvents=0;fillColor=none;top=0;left=0;bottom=0;right=0;points=[[0,0.5],[1,0.5]];portConstraint=eastwest;" parent="BvnUhjGTG6fRbxhW36Op-58" vertex="1">
          <mxGeometry y="140" width="270" height="30" as="geometry" />
        </mxCell>
        <mxCell id="BvnUhjGTG6fRbxhW36Op-95" value="FK" style="shape=partialRectangle;html=1;whiteSpace=wrap;connectable=0;fillColor=none;top=0;left=0;bottom=0;right=0;overflow=hidden;" parent="BvnUhjGTG6fRbxhW36Op-94" vertex="1">
          <mxGeometry width="40" height="30" as="geometry" />
        </mxCell>
        <mxCell id="BvnUhjGTG6fRbxhW36Op-96" value="class_id(INT NOT NULL)" style="shape=partialRectangle;html=1;whiteSpace=wrap;connectable=0;fillColor=none;top=0;left=0;bottom=0;right=0;align=left;spacingLeft=6;overflow=hidden;" parent="BvnUhjGTG6fRbxhW36Op-94" vertex="1">
          <mxGeometry x="40" width="230" height="30" as="geometry" />
        </mxCell>
        <mxCell id="BvnUhjGTG6fRbxhW36Op-65" value="" style="shape=partialRectangle;html=1;whiteSpace=wrap;collapsible=0;dropTarget=0;pointerEvents=0;fillColor=none;top=0;left=0;bottom=0;right=0;points=[[0,0.5],[1,0.5]];portConstraint=eastwest;" parent="BvnUhjGTG6fRbxhW36Op-58" vertex="1">
          <mxGeometry y="170" width="270" height="60" as="geometry" />
        </mxCell>
        <mxCell id="BvnUhjGTG6fRbxhW36Op-66" value="FK" style="shape=partialRectangle;html=1;whiteSpace=wrap;connectable=0;fillColor=none;top=0;left=0;bottom=0;right=0;overflow=hidden;" parent="BvnUhjGTG6fRbxhW36Op-65" vertex="1">
          <mxGeometry width="40" height="60" as="geometry" />
        </mxCell>
        <mxCell id="BvnUhjGTG6fRbxhW36Op-67" value="teacher_id(INT NOT NULL&lt;br&gt;)" style="shape=partialRectangle;html=1;whiteSpace=wrap;connectable=0;fillColor=none;top=0;left=0;bottom=0;right=0;align=left;spacingLeft=6;overflow=hidden;" parent="BvnUhjGTG6fRbxhW36Op-65" vertex="1">
          <mxGeometry x="40" width="230" height="60" as="geometry" />
        </mxCell>
        <mxCell id="BvnUhjGTG6fRbxhW36Op-151" value="" style="shape=partialRectangle;html=1;whiteSpace=wrap;collapsible=0;dropTarget=0;pointerEvents=0;fillColor=none;top=0;left=0;bottom=0;right=0;points=[[0,0.5],[1,0.5]];portConstraint=eastwest;" parent="BvnUhjGTG6fRbxhW36Op-58" vertex="1">
          <mxGeometry y="230" width="270" height="30" as="geometry" />
        </mxCell>
        <mxCell id="BvnUhjGTG6fRbxhW36Op-152" value="FK" style="shape=partialRectangle;html=1;whiteSpace=wrap;connectable=0;fillColor=none;top=0;left=0;bottom=0;right=0;overflow=hidden;" parent="BvnUhjGTG6fRbxhW36Op-151" vertex="1">
          <mxGeometry width="40" height="30" as="geometry" />
        </mxCell>
        <mxCell id="BvnUhjGTG6fRbxhW36Op-153" value="parent_id(INT UNIQUE&lt;br&gt;NOT NULL)" style="shape=partialRectangle;html=1;whiteSpace=wrap;connectable=0;fillColor=none;top=0;left=0;bottom=0;right=0;align=left;spacingLeft=6;overflow=hidden;" parent="BvnUhjGTG6fRbxhW36Op-151" vertex="1">
          <mxGeometry x="40" width="230" height="30" as="geometry" />
        </mxCell>
        <mxCell id="BvnUhjGTG6fRbxhW36Op-182" value="" style="shape=partialRectangle;html=1;whiteSpace=wrap;collapsible=0;dropTarget=0;pointerEvents=0;fillColor=none;top=0;left=0;bottom=0;right=0;points=[[0,0.5],[1,0.5]];portConstraint=eastwest;" parent="BvnUhjGTG6fRbxhW36Op-58" vertex="1">
          <mxGeometry y="260" width="270" height="30" as="geometry" />
        </mxCell>
        <mxCell id="BvnUhjGTG6fRbxhW36Op-183" value="FK" style="shape=partialRectangle;html=1;whiteSpace=wrap;connectable=0;fillColor=none;top=0;left=0;bottom=0;right=0;overflow=hidden;" parent="BvnUhjGTG6fRbxhW36Op-182" vertex="1">
          <mxGeometry width="40" height="30" as="geometry" />
        </mxCell>
        <mxCell id="BvnUhjGTG6fRbxhW36Op-184" value="diary_id(INT UNIQUE NOT NULL)" style="shape=partialRectangle;html=1;whiteSpace=wrap;connectable=0;fillColor=none;top=0;left=0;bottom=0;right=0;align=left;spacingLeft=6;overflow=hidden;" parent="BvnUhjGTG6fRbxhW36Op-182" vertex="1">
          <mxGeometry x="40" width="230" height="30" as="geometry" />
        </mxCell>
        <mxCell id="BvnUhjGTG6fRbxhW36Op-130" style="edgeStyle=orthogonalEdgeStyle;rounded=0;orthogonalLoop=1;jettySize=auto;html=1;exitX=0;exitY=0.5;exitDx=0;exitDy=0;entryX=0;entryY=0.5;entryDx=0;entryDy=0;" parent="1" source="BvnUhjGTG6fRbxhW36Op-48" target="BvnUhjGTG6fRbxhW36Op-94" edge="1">
          <mxGeometry relative="1" as="geometry" />
        </mxCell>
        <mxCell id="BvnUhjGTG6fRbxhW36Op-134" value="class_teacher" style="shape=table;html=1;whiteSpace=wrap;startSize=30;container=1;collapsible=0;childLayout=tableLayout;fixedRows=1;rowLines=0;fontStyle=1;align=center;" parent="1" vertex="1">
          <mxGeometry x="-220" y="240" width="180" height="210" as="geometry" />
        </mxCell>
        <mxCell id="BvnUhjGTG6fRbxhW36Op-135" value="" style="shape=partialRectangle;html=1;whiteSpace=wrap;collapsible=0;dropTarget=0;pointerEvents=0;fillColor=none;top=0;left=0;bottom=1;right=0;points=[[0,0.5],[1,0.5]];portConstraint=eastwest;" parent="BvnUhjGTG6fRbxhW36Op-134" vertex="1">
          <mxGeometry y="30" width="180" height="60" as="geometry" />
        </mxCell>
        <mxCell id="BvnUhjGTG6fRbxhW36Op-136" value="PK" style="shape=partialRectangle;html=1;whiteSpace=wrap;connectable=0;fillColor=none;top=0;left=0;bottom=0;right=0;overflow=hidden;" parent="BvnUhjGTG6fRbxhW36Op-135" vertex="1">
          <mxGeometry width="40" height="60" as="geometry" />
        </mxCell>
        <mxCell id="BvnUhjGTG6fRbxhW36Op-137" value="class_teacher_id(INT PRIMARY KEY AUTO_INCREMENT&lt;br&gt;)" style="shape=partialRectangle;html=1;whiteSpace=wrap;connectable=0;fillColor=none;top=0;left=0;bottom=0;right=0;align=left;spacingLeft=6;overflow=hidden;" parent="BvnUhjGTG6fRbxhW36Op-135" vertex="1">
          <mxGeometry x="40" width="140" height="60" as="geometry" />
        </mxCell>
        <mxCell id="BvnUhjGTG6fRbxhW36Op-138" value="" style="shape=partialRectangle;html=1;whiteSpace=wrap;collapsible=0;dropTarget=0;pointerEvents=0;fillColor=none;top=0;left=0;bottom=0;right=0;points=[[0,0.5],[1,0.5]];portConstraint=eastwest;" parent="BvnUhjGTG6fRbxhW36Op-134" vertex="1">
          <mxGeometry y="90" width="180" height="60" as="geometry" />
        </mxCell>
        <mxCell id="BvnUhjGTG6fRbxhW36Op-139" value="FK" style="shape=partialRectangle;html=1;whiteSpace=wrap;connectable=0;fillColor=none;top=0;left=0;bottom=0;right=0;overflow=hidden;" parent="BvnUhjGTG6fRbxhW36Op-138" vertex="1">
          <mxGeometry width="40" height="60" as="geometry" />
        </mxCell>
        <mxCell id="BvnUhjGTG6fRbxhW36Op-140" value="class_id(INT NOT NULL)" style="shape=partialRectangle;html=1;whiteSpace=wrap;connectable=0;fillColor=none;top=0;left=0;bottom=0;right=0;align=left;spacingLeft=6;overflow=hidden;" parent="BvnUhjGTG6fRbxhW36Op-138" vertex="1">
          <mxGeometry x="40" width="140" height="60" as="geometry" />
        </mxCell>
        <mxCell id="BvnUhjGTG6fRbxhW36Op-141" value="" style="shape=partialRectangle;html=1;whiteSpace=wrap;collapsible=0;dropTarget=0;pointerEvents=0;fillColor=none;top=0;left=0;bottom=0;right=0;points=[[0,0.5],[1,0.5]];portConstraint=eastwest;" parent="BvnUhjGTG6fRbxhW36Op-134" vertex="1">
          <mxGeometry y="150" width="180" height="30" as="geometry" />
        </mxCell>
        <mxCell id="BvnUhjGTG6fRbxhW36Op-142" value="FK" style="shape=partialRectangle;html=1;whiteSpace=wrap;connectable=0;fillColor=none;top=0;left=0;bottom=0;right=0;overflow=hidden;" parent="BvnUhjGTG6fRbxhW36Op-141" vertex="1">
          <mxGeometry width="40" height="30" as="geometry" />
        </mxCell>
        <mxCell id="BvnUhjGTG6fRbxhW36Op-143" value="teacher_id(INT NOT NULL)" style="shape=partialRectangle;html=1;whiteSpace=wrap;connectable=0;fillColor=none;top=0;left=0;bottom=0;right=0;align=left;spacingLeft=6;overflow=hidden;" parent="BvnUhjGTG6fRbxhW36Op-141" vertex="1">
          <mxGeometry x="40" width="140" height="30" as="geometry" />
        </mxCell>
        <mxCell id="BvnUhjGTG6fRbxhW36Op-146" style="edgeStyle=orthogonalEdgeStyle;rounded=0;orthogonalLoop=1;jettySize=auto;html=1;exitX=0;exitY=0.5;exitDx=0;exitDy=0;entryX=0;entryY=0.5;entryDx=0;entryDy=0;" parent="1" source="BvnUhjGTG6fRbxhW36Op-32" target="BvnUhjGTG6fRbxhW36Op-141" edge="1">
          <mxGeometry relative="1" as="geometry" />
        </mxCell>
        <mxCell id="BvnUhjGTG6fRbxhW36Op-147" style="edgeStyle=orthogonalEdgeStyle;rounded=0;orthogonalLoop=1;jettySize=auto;html=1;exitX=0;exitY=0.5;exitDx=0;exitDy=0;entryX=0;entryY=0.5;entryDx=0;entryDy=0;" parent="1" source="BvnUhjGTG6fRbxhW36Op-48" target="BvnUhjGTG6fRbxhW36Op-138" edge="1">
          <mxGeometry relative="1" as="geometry" />
        </mxCell>
        <mxCell id="BvnUhjGTG6fRbxhW36Op-2" value="user" style="shape=table;html=1;whiteSpace=wrap;startSize=30;container=1;collapsible=0;childLayout=tableLayout;fixedRows=1;rowLines=0;fontStyle=1;align=center;" parent="1" vertex="1">
          <mxGeometry x="480" y="390" width="280" height="160" as="geometry" />
        </mxCell>
        <mxCell id="BvnUhjGTG6fRbxhW36Op-3" value="" style="shape=partialRectangle;html=1;whiteSpace=wrap;collapsible=0;dropTarget=0;pointerEvents=0;fillColor=none;top=0;left=0;bottom=1;right=0;points=[[0,0.5],[1,0.5]];portConstraint=eastwest;" parent="BvnUhjGTG6fRbxhW36Op-2" vertex="1">
          <mxGeometry y="30" width="280" height="60" as="geometry" />
        </mxCell>
        <mxCell id="BvnUhjGTG6fRbxhW36Op-4" value="PK" style="shape=partialRectangle;html=1;whiteSpace=wrap;connectable=0;fillColor=none;top=0;left=0;bottom=0;right=0;overflow=hidden;" parent="BvnUhjGTG6fRbxhW36Op-3" vertex="1">
          <mxGeometry width="51" height="60" as="geometry" />
        </mxCell>
        <mxCell id="BvnUhjGTG6fRbxhW36Op-5" value="user_id(INT PRIMARY KEY AUTO_INCREMENT&lt;br&gt;)" style="shape=partialRectangle;html=1;whiteSpace=wrap;connectable=0;fillColor=none;top=0;left=0;bottom=0;right=0;align=left;spacingLeft=6;overflow=hidden;" parent="BvnUhjGTG6fRbxhW36Op-3" vertex="1">
          <mxGeometry x="51" width="229" height="60" as="geometry" />
        </mxCell>
        <mxCell id="BvnUhjGTG6fRbxhW36Op-6" value="" style="shape=partialRectangle;html=1;whiteSpace=wrap;collapsible=0;dropTarget=0;pointerEvents=0;fillColor=none;top=0;left=0;bottom=0;right=0;points=[[0,0.5],[1,0.5]];portConstraint=eastwest;" parent="BvnUhjGTG6fRbxhW36Op-2" vertex="1">
          <mxGeometry y="90" width="280" height="30" as="geometry" />
        </mxCell>
        <mxCell id="BvnUhjGTG6fRbxhW36Op-7" value="" style="shape=partialRectangle;html=1;whiteSpace=wrap;connectable=0;fillColor=none;top=0;left=0;bottom=0;right=0;overflow=hidden;" parent="BvnUhjGTG6fRbxhW36Op-6" vertex="1">
          <mxGeometry width="51" height="30" as="geometry" />
        </mxCell>
        <mxCell id="BvnUhjGTG6fRbxhW36Op-8" value="login(VARCHAR(50), UNIQUE, NOT NULL)" style="shape=partialRectangle;html=1;whiteSpace=wrap;connectable=0;fillColor=none;top=0;left=0;bottom=0;right=0;align=left;spacingLeft=6;overflow=hidden;" parent="BvnUhjGTG6fRbxhW36Op-6" vertex="1">
          <mxGeometry x="51" width="229" height="30" as="geometry" />
        </mxCell>
        <mxCell id="BvnUhjGTG6fRbxhW36Op-9" value="" style="shape=partialRectangle;html=1;whiteSpace=wrap;collapsible=0;dropTarget=0;pointerEvents=0;fillColor=none;top=0;left=0;bottom=0;right=0;points=[[0,0.5],[1,0.5]];portConstraint=eastwest;" parent="BvnUhjGTG6fRbxhW36Op-2" vertex="1">
          <mxGeometry y="120" width="280" height="30" as="geometry" />
        </mxCell>
        <mxCell id="BvnUhjGTG6fRbxhW36Op-10" value="" style="shape=partialRectangle;html=1;whiteSpace=wrap;connectable=0;fillColor=none;top=0;left=0;bottom=0;right=0;overflow=hidden;" parent="BvnUhjGTG6fRbxhW36Op-9" vertex="1">
          <mxGeometry width="51" height="30" as="geometry" />
        </mxCell>
        <mxCell id="BvnUhjGTG6fRbxhW36Op-11" value="password(VARCHAR(50),UNIQUE, NOT NULL&lt;br&gt;)" style="shape=partialRectangle;html=1;whiteSpace=wrap;connectable=0;fillColor=none;top=0;left=0;bottom=0;right=0;align=left;spacingLeft=6;overflow=hidden;" parent="BvnUhjGTG6fRbxhW36Op-9" vertex="1">
          <mxGeometry x="51" width="229" height="30" as="geometry" />
        </mxCell>
        <mxCell id="BvnUhjGTG6fRbxhW36Op-215" style="edgeStyle=orthogonalEdgeStyle;rounded=0;orthogonalLoop=1;jettySize=auto;html=1;exitX=0;exitY=0.5;exitDx=0;exitDy=0;entryX=0;entryY=0.5;entryDx=0;entryDy=0;" parent="1" source="BvnUhjGTG6fRbxhW36Op-31" target="BvnUhjGTG6fRbxhW36Op-212" edge="1">
          <mxGeometry relative="1" as="geometry">
            <mxPoint x="410" y="890" as="targetPoint" />
            <Array as="points">
              <mxPoint x="30" y="620" />
              <mxPoint x="30" y="945" />
            </Array>
          </mxGeometry>
        </mxCell>
        <mxCell id="BvnUhjGTG6fRbxhW36Op-31" value="teacher" style="shape=table;html=1;whiteSpace=wrap;startSize=30;container=1;collapsible=0;childLayout=tableLayout;fixedRows=1;rowLines=0;fontStyle=1;align=center;" parent="1" vertex="1">
          <mxGeometry x="50" y="560" width="220" height="120" as="geometry" />
        </mxCell>
        <mxCell id="BvnUhjGTG6fRbxhW36Op-32" value="" style="shape=partialRectangle;html=1;whiteSpace=wrap;collapsible=0;dropTarget=0;pointerEvents=0;fillColor=none;top=0;left=0;bottom=1;right=0;points=[[0,0.5],[1,0.5]];portConstraint=eastwest;" parent="BvnUhjGTG6fRbxhW36Op-31" vertex="1">
          <mxGeometry y="30" width="220" height="60" as="geometry" />
        </mxCell>
        <mxCell id="BvnUhjGTG6fRbxhW36Op-33" value="PK" style="shape=partialRectangle;html=1;whiteSpace=wrap;connectable=0;fillColor=none;top=0;left=0;bottom=0;right=0;overflow=hidden;" parent="BvnUhjGTG6fRbxhW36Op-32" vertex="1">
          <mxGeometry width="40" height="60" as="geometry" />
        </mxCell>
        <mxCell id="BvnUhjGTG6fRbxhW36Op-34" value="teacher_id(INT PRIMARY KEY AUTO_INCREMENT&lt;br&gt;)" style="shape=partialRectangle;html=1;whiteSpace=wrap;connectable=0;fillColor=none;top=0;left=0;bottom=0;right=0;align=left;spacingLeft=6;overflow=hidden;" parent="BvnUhjGTG6fRbxhW36Op-32" vertex="1">
          <mxGeometry x="40" width="180" height="60" as="geometry" />
        </mxCell>
        <mxCell id="BvnUhjGTG6fRbxhW36Op-35" value="" style="shape=partialRectangle;html=1;whiteSpace=wrap;collapsible=0;dropTarget=0;pointerEvents=0;fillColor=none;top=0;left=0;bottom=0;right=0;points=[[0,0.5],[1,0.5]];portConstraint=eastwest;" parent="BvnUhjGTG6fRbxhW36Op-31" vertex="1">
          <mxGeometry y="90" width="220" height="30" as="geometry" />
        </mxCell>
        <mxCell id="BvnUhjGTG6fRbxhW36Op-36" value="" style="shape=partialRectangle;html=1;whiteSpace=wrap;connectable=0;fillColor=none;top=0;left=0;bottom=0;right=0;overflow=hidden;" parent="BvnUhjGTG6fRbxhW36Op-35" vertex="1">
          <mxGeometry width="40" height="30" as="geometry" />
        </mxCell>
        <mxCell id="BvnUhjGTG6fRbxhW36Op-37" value="name(VARCHAR(50),NOT NULL&lt;br&gt;)" style="shape=partialRectangle;html=1;whiteSpace=wrap;connectable=0;fillColor=none;top=0;left=0;bottom=0;right=0;align=left;spacingLeft=6;overflow=hidden;" parent="BvnUhjGTG6fRbxhW36Op-35" vertex="1">
          <mxGeometry x="40" width="180" height="30" as="geometry" />
        </mxCell>
        <mxCell id="BvnUhjGTG6fRbxhW36Op-110" value="parent" style="shape=table;html=1;whiteSpace=wrap;startSize=30;container=1;collapsible=0;childLayout=tableLayout;fixedRows=1;rowLines=0;fontStyle=1;align=center;" parent="1" vertex="1">
          <mxGeometry x="840" y="250" width="290" height="170" as="geometry" />
        </mxCell>
        <mxCell id="BvnUhjGTG6fRbxhW36Op-111" value="" style="shape=partialRectangle;html=1;whiteSpace=wrap;collapsible=0;dropTarget=0;pointerEvents=0;fillColor=none;top=0;left=0;bottom=1;right=0;points=[[0,0.5],[1,0.5]];portConstraint=eastwest;" parent="BvnUhjGTG6fRbxhW36Op-110" vertex="1">
          <mxGeometry y="30" width="290" height="60" as="geometry" />
        </mxCell>
        <mxCell id="BvnUhjGTG6fRbxhW36Op-112" value="PK" style="shape=partialRectangle;html=1;whiteSpace=wrap;connectable=0;fillColor=none;top=0;left=0;bottom=0;right=0;overflow=hidden;" parent="BvnUhjGTG6fRbxhW36Op-111" vertex="1">
          <mxGeometry width="64" height="60" as="geometry" />
        </mxCell>
        <mxCell id="BvnUhjGTG6fRbxhW36Op-113" value="parend_id(INT PRIMARY KEY AUTO_INCREMENT&lt;br&gt;)" style="shape=partialRectangle;html=1;whiteSpace=wrap;connectable=0;fillColor=none;top=0;left=0;bottom=0;right=0;align=left;spacingLeft=6;overflow=hidden;" parent="BvnUhjGTG6fRbxhW36Op-111" vertex="1">
          <mxGeometry x="64" width="226" height="60" as="geometry" />
        </mxCell>
        <mxCell id="uqIJf9vQqMepXENhJmsh-11" style="shape=partialRectangle;html=1;whiteSpace=wrap;collapsible=0;dropTarget=0;pointerEvents=0;fillColor=none;top=0;left=0;bottom=1;right=0;points=[[0,0.5],[1,0.5]];portConstraint=eastwest;" parent="BvnUhjGTG6fRbxhW36Op-110" vertex="1">
          <mxGeometry y="90" width="290" height="50" as="geometry" />
        </mxCell>
        <mxCell id="uqIJf9vQqMepXENhJmsh-12" style="shape=partialRectangle;html=1;whiteSpace=wrap;connectable=0;fillColor=none;top=0;left=0;bottom=0;right=0;overflow=hidden;" parent="uqIJf9vQqMepXENhJmsh-11" vertex="1">
          <mxGeometry width="64" height="50" as="geometry" />
        </mxCell>
        <mxCell id="uqIJf9vQqMepXENhJmsh-13" value="&lt;span&gt;parent_name(VARCHAR(50),NOT NULL&lt;/span&gt;&lt;br&gt;&lt;span&gt;)&lt;/span&gt;" style="shape=partialRectangle;html=1;whiteSpace=wrap;connectable=0;fillColor=none;top=0;left=0;bottom=0;right=0;align=left;spacingLeft=6;overflow=hidden;" parent="uqIJf9vQqMepXENhJmsh-11" vertex="1">
          <mxGeometry x="64" width="226" height="50" as="geometry" />
        </mxCell>
        <mxCell id="BvnUhjGTG6fRbxhW36Op-114" value="" style="shape=partialRectangle;html=1;whiteSpace=wrap;collapsible=0;dropTarget=0;pointerEvents=0;fillColor=none;top=0;left=0;bottom=0;right=0;points=[[0,0.5],[1,0.5]];portConstraint=eastwest;" parent="BvnUhjGTG6fRbxhW36Op-110" vertex="1">
          <mxGeometry y="140" width="290" height="30" as="geometry" />
        </mxCell>
        <mxCell id="BvnUhjGTG6fRbxhW36Op-115" value="" style="shape=partialRectangle;html=1;whiteSpace=wrap;connectable=0;fillColor=none;top=0;left=0;bottom=0;right=0;overflow=hidden;" parent="BvnUhjGTG6fRbxhW36Op-114" vertex="1">
          <mxGeometry width="64" height="30" as="geometry" />
        </mxCell>
        <mxCell id="BvnUhjGTG6fRbxhW36Op-116" value="parent_gmail(VARCHAR(50),NOT NULL&lt;br&gt;)" style="shape=partialRectangle;html=1;whiteSpace=wrap;connectable=0;fillColor=none;top=0;left=0;bottom=0;right=0;align=left;spacingLeft=6;overflow=hidden;" parent="BvnUhjGTG6fRbxhW36Op-114" vertex="1">
          <mxGeometry x="64" width="226" height="30" as="geometry" />
        </mxCell>
        <mxCell id="BvnUhjGTG6fRbxhW36Op-156" value="administrator" style="shape=table;html=1;whiteSpace=wrap;startSize=30;container=1;collapsible=0;childLayout=tableLayout;fixedRows=1;rowLines=0;fontStyle=1;align=center;" parent="1" vertex="1">
          <mxGeometry x="850" y="640" width="180" height="120" as="geometry" />
        </mxCell>
        <mxCell id="BvnUhjGTG6fRbxhW36Op-157" value="" style="shape=partialRectangle;html=1;whiteSpace=wrap;collapsible=0;dropTarget=0;pointerEvents=0;fillColor=none;top=0;left=0;bottom=1;right=0;points=[[0,0.5],[1,0.5]];portConstraint=eastwest;" parent="BvnUhjGTG6fRbxhW36Op-156" vertex="1">
          <mxGeometry y="30" width="180" height="30" as="geometry" />
        </mxCell>
        <mxCell id="BvnUhjGTG6fRbxhW36Op-158" value="PK" style="shape=partialRectangle;html=1;whiteSpace=wrap;connectable=0;fillColor=none;top=0;left=0;bottom=0;right=0;overflow=hidden;" parent="BvnUhjGTG6fRbxhW36Op-157" vertex="1">
          <mxGeometry width="40" height="30" as="geometry" />
        </mxCell>
        <mxCell id="BvnUhjGTG6fRbxhW36Op-159" value="&lt;span style=&quot;font-weight: 700 ; text-align: center&quot;&gt;administrator_id(&lt;/span&gt;class_id(INT PRIMARY KEY AUTO_INCREMENT&lt;br&gt;)&lt;span style=&quot;font-weight: 700 ; text-align: center&quot;&gt;&lt;br&gt;)&lt;/span&gt;" style="shape=partialRectangle;html=1;whiteSpace=wrap;connectable=0;fillColor=none;top=0;left=0;bottom=0;right=0;align=left;spacingLeft=6;overflow=hidden;" parent="BvnUhjGTG6fRbxhW36Op-157" vertex="1">
          <mxGeometry x="40" width="140" height="30" as="geometry" />
        </mxCell>
        <mxCell id="BvnUhjGTG6fRbxhW36Op-160" value="" style="shape=partialRectangle;html=1;whiteSpace=wrap;collapsible=0;dropTarget=0;pointerEvents=0;fillColor=none;top=0;left=0;bottom=0;right=0;points=[[0,0.5],[1,0.5]];portConstraint=eastwest;" parent="BvnUhjGTG6fRbxhW36Op-156" vertex="1">
          <mxGeometry y="60" width="180" height="30" as="geometry" />
        </mxCell>
        <mxCell id="BvnUhjGTG6fRbxhW36Op-161" value="" style="shape=partialRectangle;html=1;whiteSpace=wrap;connectable=0;fillColor=none;top=0;left=0;bottom=0;right=0;overflow=hidden;" parent="BvnUhjGTG6fRbxhW36Op-160" vertex="1">
          <mxGeometry width="40" height="30" as="geometry" />
        </mxCell>
        <mxCell id="BvnUhjGTG6fRbxhW36Op-162" value="Name(VARCHAR(50) NOT NULL&lt;br&gt;)" style="shape=partialRectangle;html=1;whiteSpace=wrap;connectable=0;fillColor=none;top=0;left=0;bottom=0;right=0;align=left;spacingLeft=6;overflow=hidden;" parent="BvnUhjGTG6fRbxhW36Op-160" vertex="1">
          <mxGeometry x="40" width="140" height="30" as="geometry" />
        </mxCell>
        <mxCell id="BvnUhjGTG6fRbxhW36Op-167" style="edgeStyle=orthogonalEdgeStyle;rounded=0;orthogonalLoop=1;jettySize=auto;html=1;exitX=0;exitY=0.5;exitDx=0;exitDy=0;" parent="1" source="BvnUhjGTG6fRbxhW36Op-3" target="BvnUhjGTG6fRbxhW36Op-32" edge="1">
          <mxGeometry relative="1" as="geometry" />
        </mxCell>
        <mxCell id="BvnUhjGTG6fRbxhW36Op-168" style="edgeStyle=orthogonalEdgeStyle;rounded=0;orthogonalLoop=1;jettySize=auto;html=1;exitX=0;exitY=0.5;exitDx=0;exitDy=0;entryX=1;entryY=0.074;entryDx=0;entryDy=0;entryPerimeter=0;" parent="1" source="BvnUhjGTG6fRbxhW36Op-3" target="BvnUhjGTG6fRbxhW36Op-58" edge="1">
          <mxGeometry relative="1" as="geometry" />
        </mxCell>
        <mxCell id="BvnUhjGTG6fRbxhW36Op-169" style="edgeStyle=orthogonalEdgeStyle;rounded=0;orthogonalLoop=1;jettySize=auto;html=1;exitX=0;exitY=0.5;exitDx=0;exitDy=0;" parent="1" source="BvnUhjGTG6fRbxhW36Op-3" target="BvnUhjGTG6fRbxhW36Op-111" edge="1">
          <mxGeometry relative="1" as="geometry" />
        </mxCell>
        <mxCell id="BvnUhjGTG6fRbxhW36Op-170" style="edgeStyle=orthogonalEdgeStyle;rounded=0;orthogonalLoop=1;jettySize=auto;html=1;exitX=0;exitY=0.5;exitDx=0;exitDy=0;entryX=0;entryY=0.5;entryDx=0;entryDy=0;" parent="1" source="BvnUhjGTG6fRbxhW36Op-3" target="BvnUhjGTG6fRbxhW36Op-156" edge="1">
          <mxGeometry relative="1" as="geometry" />
        </mxCell>
        <mxCell id="BvnUhjGTG6fRbxhW36Op-171" value="diary" style="shape=table;html=1;whiteSpace=wrap;startSize=30;container=1;collapsible=0;childLayout=tableLayout;fixedRows=1;rowLines=0;fontStyle=1;align=center;" parent="1" vertex="1">
          <mxGeometry x="-240" y="640" width="250.00000000000045" height="190" as="geometry" />
        </mxCell>
        <mxCell id="BvnUhjGTG6fRbxhW36Op-172" value="" style="shape=partialRectangle;html=1;whiteSpace=wrap;collapsible=0;dropTarget=0;pointerEvents=0;fillColor=none;top=0;left=0;bottom=1;right=0;points=[[0,0.5],[1,0.5]];portConstraint=eastwest;" parent="BvnUhjGTG6fRbxhW36Op-171" vertex="1">
          <mxGeometry y="30" width="250.00000000000045" height="50" as="geometry" />
        </mxCell>
        <mxCell id="BvnUhjGTG6fRbxhW36Op-173" value="PK" style="shape=partialRectangle;html=1;whiteSpace=wrap;connectable=0;fillColor=none;top=0;left=0;bottom=0;right=0;overflow=hidden;" parent="BvnUhjGTG6fRbxhW36Op-172" vertex="1">
          <mxGeometry width="40" height="50" as="geometry" />
        </mxCell>
        <mxCell id="BvnUhjGTG6fRbxhW36Op-174" value="diary_id((INT PRIMARY KEY AUTO_INCREMENT)&lt;br&gt;)" style="shape=partialRectangle;html=1;whiteSpace=wrap;connectable=0;fillColor=none;top=0;left=0;bottom=0;right=0;align=left;spacingLeft=6;overflow=hidden;" parent="BvnUhjGTG6fRbxhW36Op-172" vertex="1">
          <mxGeometry x="40" width="210" height="50" as="geometry" />
        </mxCell>
        <mxCell id="BvnUhjGTG6fRbxhW36Op-175" value="" style="shape=partialRectangle;html=1;whiteSpace=wrap;collapsible=0;dropTarget=0;pointerEvents=0;fillColor=none;top=0;left=0;bottom=0;right=0;points=[[0,0.5],[1,0.5]];portConstraint=eastwest;" parent="BvnUhjGTG6fRbxhW36Op-171" vertex="1">
          <mxGeometry y="80" width="250.00000000000045" height="50" as="geometry" />
        </mxCell>
        <mxCell id="BvnUhjGTG6fRbxhW36Op-176" value="" style="shape=partialRectangle;html=1;whiteSpace=wrap;connectable=0;fillColor=none;top=0;left=0;bottom=0;right=0;overflow=hidden;" parent="BvnUhjGTG6fRbxhW36Op-175" vertex="1">
          <mxGeometry width="40" height="50" as="geometry" />
        </mxCell>
        <mxCell id="BvnUhjGTG6fRbxhW36Op-177" value="math_score(VARCHAR(100))" style="shape=partialRectangle;html=1;whiteSpace=wrap;connectable=0;fillColor=none;top=0;left=0;bottom=0;right=0;align=left;spacingLeft=6;overflow=hidden;" parent="BvnUhjGTG6fRbxhW36Op-175" vertex="1">
          <mxGeometry x="40" width="210" height="50" as="geometry" />
        </mxCell>
        <mxCell id="BvnUhjGTG6fRbxhW36Op-178" value="" style="shape=partialRectangle;html=1;whiteSpace=wrap;collapsible=0;dropTarget=0;pointerEvents=0;fillColor=none;top=0;left=0;bottom=0;right=0;points=[[0,0.5],[1,0.5]];portConstraint=eastwest;" parent="BvnUhjGTG6fRbxhW36Op-171" vertex="1">
          <mxGeometry y="130" width="250.00000000000045" height="30" as="geometry" />
        </mxCell>
        <mxCell id="BvnUhjGTG6fRbxhW36Op-179" value="" style="shape=partialRectangle;html=1;whiteSpace=wrap;connectable=0;fillColor=none;top=0;left=0;bottom=0;right=0;overflow=hidden;" parent="BvnUhjGTG6fRbxhW36Op-178" vertex="1">
          <mxGeometry width="40" height="30" as="geometry" />
        </mxCell>
        <mxCell id="BvnUhjGTG6fRbxhW36Op-180" value="english_score((VARCHAR(100))" style="shape=partialRectangle;html=1;whiteSpace=wrap;connectable=0;fillColor=none;top=0;left=0;bottom=0;right=0;align=left;spacingLeft=6;overflow=hidden;" parent="BvnUhjGTG6fRbxhW36Op-178" vertex="1">
          <mxGeometry x="40" width="210" height="30" as="geometry" />
        </mxCell>
        <mxCell id="BvnUhjGTG6fRbxhW36Op-186" style="edgeStyle=orthogonalEdgeStyle;rounded=0;orthogonalLoop=1;jettySize=auto;html=1;exitX=0;exitY=0.5;exitDx=0;exitDy=0;entryX=0;entryY=0.5;entryDx=0;entryDy=0;" parent="1" source="BvnUhjGTG6fRbxhW36Op-172" target="BvnUhjGTG6fRbxhW36Op-182" edge="1">
          <mxGeometry relative="1" as="geometry" />
        </mxCell>
        <mxCell id="BvnUhjGTG6fRbxhW36Op-187" style="edgeStyle=orthogonalEdgeStyle;rounded=0;orthogonalLoop=1;jettySize=auto;html=1;exitX=0;exitY=0.5;exitDx=0;exitDy=0;entryX=0;entryY=0.5;entryDx=0;entryDy=0;" parent="1" source="BvnUhjGTG6fRbxhW36Op-111" target="BvnUhjGTG6fRbxhW36Op-151" edge="1">
          <mxGeometry relative="1" as="geometry">
            <Array as="points">
              <mxPoint x="820" y="310" />
              <mxPoint x="820" y="590" />
              <mxPoint x="40" y="590" />
              <mxPoint x="40" y="445" />
            </Array>
          </mxGeometry>
        </mxCell>
        <mxCell id="BvnUhjGTG6fRbxhW36Op-188" value="school_meetings" style="shape=table;html=1;whiteSpace=wrap;startSize=30;container=1;collapsible=0;childLayout=tableLayout;fixedRows=1;rowLines=0;fontStyle=1;align=center;" parent="1" vertex="1">
          <mxGeometry x="420" y="760" width="230" height="200.00000000000023" as="geometry" />
        </mxCell>
        <mxCell id="BvnUhjGTG6fRbxhW36Op-189" value="" style="shape=partialRectangle;html=1;whiteSpace=wrap;collapsible=0;dropTarget=0;pointerEvents=0;fillColor=none;top=0;left=0;bottom=1;right=0;points=[[0,0.5],[1,0.5]];portConstraint=eastwest;" parent="BvnUhjGTG6fRbxhW36Op-188" vertex="1">
          <mxGeometry y="30" width="230" height="30" as="geometry" />
        </mxCell>
        <mxCell id="BvnUhjGTG6fRbxhW36Op-190" value="PK" style="shape=partialRectangle;html=1;whiteSpace=wrap;connectable=0;fillColor=none;top=0;left=0;bottom=0;right=0;overflow=hidden;" parent="BvnUhjGTG6fRbxhW36Op-189" vertex="1">
          <mxGeometry width="40" height="30" as="geometry" />
        </mxCell>
        <mxCell id="BvnUhjGTG6fRbxhW36Op-191" value="school_meetings_id(class_id(INT PRIMARY KEY AUTO_INCREMENT&lt;br&gt;)&lt;br&gt;)" style="shape=partialRectangle;html=1;whiteSpace=wrap;connectable=0;fillColor=none;top=0;left=0;bottom=0;right=0;align=left;spacingLeft=6;overflow=hidden;" parent="BvnUhjGTG6fRbxhW36Op-189" vertex="1">
          <mxGeometry x="40" width="190" height="30" as="geometry" />
        </mxCell>
        <mxCell id="BvnUhjGTG6fRbxhW36Op-192" value="" style="shape=partialRectangle;html=1;whiteSpace=wrap;collapsible=0;dropTarget=0;pointerEvents=0;fillColor=none;top=0;left=0;bottom=0;right=0;points=[[0,0.5],[1,0.5]];portConstraint=eastwest;" parent="BvnUhjGTG6fRbxhW36Op-188" vertex="1">
          <mxGeometry y="60" width="230" height="60" as="geometry" />
        </mxCell>
        <mxCell id="BvnUhjGTG6fRbxhW36Op-193" value="FK" style="shape=partialRectangle;html=1;whiteSpace=wrap;connectable=0;fillColor=none;top=0;left=0;bottom=0;right=0;overflow=hidden;" parent="BvnUhjGTG6fRbxhW36Op-192" vertex="1">
          <mxGeometry width="40" height="60" as="geometry" />
        </mxCell>
        <mxCell id="BvnUhjGTG6fRbxhW36Op-194" value="parend_id(((INT NOT NULL))&lt;br&gt;)" style="shape=partialRectangle;html=1;whiteSpace=wrap;connectable=0;fillColor=none;top=0;left=0;bottom=0;right=0;align=left;spacingLeft=6;overflow=hidden;" parent="BvnUhjGTG6fRbxhW36Op-192" vertex="1">
          <mxGeometry x="40" width="190" height="60" as="geometry" />
        </mxCell>
        <mxCell id="BvnUhjGTG6fRbxhW36Op-195" value="" style="shape=partialRectangle;html=1;whiteSpace=wrap;collapsible=0;dropTarget=0;pointerEvents=0;fillColor=none;top=0;left=0;bottom=0;right=0;points=[[0,0.5],[1,0.5]];portConstraint=eastwest;" parent="BvnUhjGTG6fRbxhW36Op-188" vertex="1">
          <mxGeometry y="120" width="230" height="50" as="geometry" />
        </mxCell>
        <mxCell id="BvnUhjGTG6fRbxhW36Op-196" value="" style="shape=partialRectangle;html=1;whiteSpace=wrap;connectable=0;fillColor=none;top=0;left=0;bottom=0;right=0;overflow=hidden;" parent="BvnUhjGTG6fRbxhW36Op-195" vertex="1">
          <mxGeometry width="40" height="50" as="geometry" />
        </mxCell>
        <mxCell id="BvnUhjGTG6fRbxhW36Op-197" value="reason((VARCHAR(50),NOT NULL&lt;br&gt;)&lt;br&gt;)" style="shape=partialRectangle;html=1;whiteSpace=wrap;connectable=0;fillColor=none;top=0;left=0;bottom=0;right=0;align=left;spacingLeft=6;overflow=hidden;" parent="BvnUhjGTG6fRbxhW36Op-195" vertex="1">
          <mxGeometry x="40" width="190" height="50" as="geometry" />
        </mxCell>
        <mxCell id="BvnUhjGTG6fRbxhW36Op-212" value="" style="shape=partialRectangle;html=1;whiteSpace=wrap;collapsible=0;dropTarget=0;pointerEvents=0;fillColor=none;top=0;left=0;bottom=0;right=0;points=[[0,0.5],[1,0.5]];portConstraint=eastwest;" parent="BvnUhjGTG6fRbxhW36Op-188" vertex="1">
          <mxGeometry y="170" width="230" height="30" as="geometry" />
        </mxCell>
        <mxCell id="BvnUhjGTG6fRbxhW36Op-213" value="FK" style="shape=partialRectangle;html=1;whiteSpace=wrap;connectable=0;fillColor=none;top=0;left=0;bottom=0;right=0;overflow=hidden;" parent="BvnUhjGTG6fRbxhW36Op-212" vertex="1">
          <mxGeometry width="40" height="30" as="geometry" />
        </mxCell>
        <mxCell id="BvnUhjGTG6fRbxhW36Op-214" value="teacher_id((INT UNIQUE NOT NULL))" style="shape=partialRectangle;html=1;whiteSpace=wrap;connectable=0;fillColor=none;top=0;left=0;bottom=0;right=0;align=left;spacingLeft=6;overflow=hidden;" parent="BvnUhjGTG6fRbxhW36Op-212" vertex="1">
          <mxGeometry x="40" width="190" height="30" as="geometry" />
        </mxCell>
        <mxCell id="BvnUhjGTG6fRbxhW36Op-216" style="edgeStyle=orthogonalEdgeStyle;rounded=0;orthogonalLoop=1;jettySize=auto;html=1;exitX=0;exitY=0.5;exitDx=0;exitDy=0;entryX=0;entryY=0.5;entryDx=0;entryDy=0;" parent="1" source="BvnUhjGTG6fRbxhW36Op-111" target="BvnUhjGTG6fRbxhW36Op-192" edge="1">
          <mxGeometry relative="1" as="geometry">
            <Array as="points">
              <mxPoint x="820" y="310" />
              <mxPoint x="820" y="290" />
              <mxPoint x="360" y="290" />
              <mxPoint x="360" y="850" />
            </Array>
          </mxGeometry>
        </mxCell>
        <mxCell id="BvnUhjGTG6fRbxhW36Op-217" value="complaints" style="shape=table;html=1;whiteSpace=wrap;startSize=30;container=1;collapsible=0;childLayout=tableLayout;fixedRows=1;rowLines=0;fontStyle=1;align=center;" parent="1" vertex="1">
          <mxGeometry x="505" y="10" width="230" height="200.00000000000023" as="geometry" />
        </mxCell>
        <mxCell id="BvnUhjGTG6fRbxhW36Op-218" value="" style="shape=partialRectangle;html=1;whiteSpace=wrap;collapsible=0;dropTarget=0;pointerEvents=0;fillColor=none;top=0;left=0;bottom=1;right=0;points=[[0,0.5],[1,0.5]];portConstraint=eastwest;" parent="BvnUhjGTG6fRbxhW36Op-217" vertex="1">
          <mxGeometry y="30" width="230" height="30" as="geometry" />
        </mxCell>
        <mxCell id="BvnUhjGTG6fRbxhW36Op-219" value="PK" style="shape=partialRectangle;html=1;whiteSpace=wrap;connectable=0;fillColor=none;top=0;left=0;bottom=0;right=0;overflow=hidden;" parent="BvnUhjGTG6fRbxhW36Op-218" vertex="1">
          <mxGeometry width="40" height="30" as="geometry" />
        </mxCell>
        <mxCell id="BvnUhjGTG6fRbxhW36Op-220" value="complaints_id(class_id(INT PRIMARY KEY AUTO_INCREMENT&lt;br&gt;)&lt;br&gt;)" style="shape=partialRectangle;html=1;whiteSpace=wrap;connectable=0;fillColor=none;top=0;left=0;bottom=0;right=0;align=left;spacingLeft=6;overflow=hidden;" parent="BvnUhjGTG6fRbxhW36Op-218" vertex="1">
          <mxGeometry x="40" width="190" height="30" as="geometry" />
        </mxCell>
        <mxCell id="BvnUhjGTG6fRbxhW36Op-221" value="" style="shape=partialRectangle;html=1;whiteSpace=wrap;collapsible=0;dropTarget=0;pointerEvents=0;fillColor=none;top=0;left=0;bottom=0;right=0;points=[[0,0.5],[1,0.5]];portConstraint=eastwest;" parent="BvnUhjGTG6fRbxhW36Op-217" vertex="1">
          <mxGeometry y="60" width="230" height="60" as="geometry" />
        </mxCell>
        <mxCell id="BvnUhjGTG6fRbxhW36Op-222" value="FK" style="shape=partialRectangle;html=1;whiteSpace=wrap;connectable=0;fillColor=none;top=0;left=0;bottom=0;right=0;overflow=hidden;" parent="BvnUhjGTG6fRbxhW36Op-221" vertex="1">
          <mxGeometry width="40" height="60" as="geometry" />
        </mxCell>
        <mxCell id="BvnUhjGTG6fRbxhW36Op-223" value="student_id(((INT NOT NULL))&lt;br&gt;)" style="shape=partialRectangle;html=1;whiteSpace=wrap;connectable=0;fillColor=none;top=0;left=0;bottom=0;right=0;align=left;spacingLeft=6;overflow=hidden;" parent="BvnUhjGTG6fRbxhW36Op-221" vertex="1">
          <mxGeometry x="40" width="190" height="60" as="geometry" />
        </mxCell>
        <mxCell id="BvnUhjGTG6fRbxhW36Op-224" value="" style="shape=partialRectangle;html=1;whiteSpace=wrap;collapsible=0;dropTarget=0;pointerEvents=0;fillColor=none;top=0;left=0;bottom=0;right=0;points=[[0,0.5],[1,0.5]];portConstraint=eastwest;" parent="BvnUhjGTG6fRbxhW36Op-217" vertex="1">
          <mxGeometry y="120" width="230" height="50" as="geometry" />
        </mxCell>
        <mxCell id="BvnUhjGTG6fRbxhW36Op-225" value="" style="shape=partialRectangle;html=1;whiteSpace=wrap;connectable=0;fillColor=none;top=0;left=0;bottom=0;right=0;overflow=hidden;" parent="BvnUhjGTG6fRbxhW36Op-224" vertex="1">
          <mxGeometry width="40" height="50" as="geometry" />
        </mxCell>
        <mxCell id="BvnUhjGTG6fRbxhW36Op-226" value="reason((VARCHAR(50),NOT NULL))" style="shape=partialRectangle;html=1;whiteSpace=wrap;connectable=0;fillColor=none;top=0;left=0;bottom=0;right=0;align=left;spacingLeft=6;overflow=hidden;" parent="BvnUhjGTG6fRbxhW36Op-224" vertex="1">
          <mxGeometry x="40" width="190" height="50" as="geometry" />
        </mxCell>
        <mxCell id="BvnUhjGTG6fRbxhW36Op-227" value="" style="shape=partialRectangle;html=1;whiteSpace=wrap;collapsible=0;dropTarget=0;pointerEvents=0;fillColor=none;top=0;left=0;bottom=0;right=0;points=[[0,0.5],[1,0.5]];portConstraint=eastwest;" parent="BvnUhjGTG6fRbxhW36Op-217" vertex="1">
          <mxGeometry y="170" width="230" height="30" as="geometry" />
        </mxCell>
        <mxCell id="BvnUhjGTG6fRbxhW36Op-228" value="FK" style="shape=partialRectangle;html=1;whiteSpace=wrap;connectable=0;fillColor=none;top=0;left=0;bottom=0;right=0;overflow=hidden;" parent="BvnUhjGTG6fRbxhW36Op-227" vertex="1">
          <mxGeometry width="40" height="30" as="geometry" />
        </mxCell>
        <mxCell id="BvnUhjGTG6fRbxhW36Op-229" value="teacher_id((INT UNIQUE NOT NULL))" style="shape=partialRectangle;html=1;whiteSpace=wrap;connectable=0;fillColor=none;top=0;left=0;bottom=0;right=0;align=left;spacingLeft=6;overflow=hidden;" parent="BvnUhjGTG6fRbxhW36Op-227" vertex="1">
          <mxGeometry x="40" width="190" height="30" as="geometry" />
        </mxCell>
        <mxCell id="BvnUhjGTG6fRbxhW36Op-230" style="edgeStyle=orthogonalEdgeStyle;rounded=0;orthogonalLoop=1;jettySize=auto;html=1;exitX=0;exitY=0.5;exitDx=0;exitDy=0;entryX=0;entryY=0.5;entryDx=0;entryDy=0;" parent="1" source="BvnUhjGTG6fRbxhW36Op-59" target="BvnUhjGTG6fRbxhW36Op-221" edge="1">
          <mxGeometry relative="1" as="geometry">
            <Array as="points">
              <mxPoint x="10" y="260" />
              <mxPoint x="10" y="100" />
            </Array>
          </mxGeometry>
        </mxCell>
        <mxCell id="BvnUhjGTG6fRbxhW36Op-231" style="edgeStyle=orthogonalEdgeStyle;rounded=0;orthogonalLoop=1;jettySize=auto;html=1;exitX=0;exitY=0.5;exitDx=0;exitDy=0;entryX=0;entryY=0.5;entryDx=0;entryDy=0;" parent="1" source="BvnUhjGTG6fRbxhW36Op-32" target="BvnUhjGTG6fRbxhW36Op-227" edge="1">
          <mxGeometry relative="1" as="geometry" />
        </mxCell>
        <mxCell id="tb2j7ddMHr0u5iwM4HsQ-1" style="edgeStyle=orthogonalEdgeStyle;rounded=0;orthogonalLoop=1;jettySize=auto;html=1;exitX=0;exitY=0.5;exitDx=0;exitDy=0;entryX=0;entryY=0.5;entryDx=0;entryDy=0;" parent="1" source="BvnUhjGTG6fRbxhW36Op-32" target="BvnUhjGTG6fRbxhW36Op-65" edge="1">
          <mxGeometry relative="1" as="geometry">
            <Array as="points">
              <mxPoint x="10" y="620" />
              <mxPoint x="10" y="400" />
            </Array>
          </mxGeometry>
        </mxCell>
        <mxCell id="folOr7VXah5515mHTYtm-1" value="item" style="shape=table;html=1;whiteSpace=wrap;startSize=30;container=1;collapsible=0;childLayout=tableLayout;fixedRows=1;rowLines=0;fontStyle=1;align=center;" vertex="1" parent="1">
          <mxGeometry x="-250" y="970" width="250.00000000000045" height="190" as="geometry" />
        </mxCell>
        <mxCell id="folOr7VXah5515mHTYtm-2" value="" style="shape=partialRectangle;html=1;whiteSpace=wrap;collapsible=0;dropTarget=0;pointerEvents=0;fillColor=none;top=0;left=0;bottom=1;right=0;points=[[0,0.5],[1,0.5]];portConstraint=eastwest;" vertex="1" parent="folOr7VXah5515mHTYtm-1">
          <mxGeometry y="30" width="250.00000000000045" height="50" as="geometry" />
        </mxCell>
        <mxCell id="folOr7VXah5515mHTYtm-3" value="PK" style="shape=partialRectangle;html=1;whiteSpace=wrap;connectable=0;fillColor=none;top=0;left=0;bottom=0;right=0;overflow=hidden;" vertex="1" parent="folOr7VXah5515mHTYtm-2">
          <mxGeometry width="40" height="50" as="geometry">
            <mxRectangle width="40" height="50" as="alternateBounds" />
          </mxGeometry>
        </mxCell>
        <mxCell id="folOr7VXah5515mHTYtm-4" value="item_id((INT PRIMARY KEY AUTO_INCREMENT)&lt;br&gt;)" style="shape=partialRectangle;html=1;whiteSpace=wrap;connectable=0;fillColor=none;top=0;left=0;bottom=0;right=0;align=left;spacingLeft=6;overflow=hidden;" vertex="1" parent="folOr7VXah5515mHTYtm-2">
          <mxGeometry x="40" width="210" height="50" as="geometry">
            <mxRectangle width="210" height="50" as="alternateBounds" />
          </mxGeometry>
        </mxCell>
        <mxCell id="folOr7VXah5515mHTYtm-5" value="" style="shape=partialRectangle;html=1;whiteSpace=wrap;collapsible=0;dropTarget=0;pointerEvents=0;fillColor=none;top=0;left=0;bottom=0;right=0;points=[[0,0.5],[1,0.5]];portConstraint=eastwest;" vertex="1" parent="folOr7VXah5515mHTYtm-1">
          <mxGeometry y="80" width="250.00000000000045" height="50" as="geometry" />
        </mxCell>
        <mxCell id="folOr7VXah5515mHTYtm-6" value="" style="shape=partialRectangle;html=1;whiteSpace=wrap;connectable=0;fillColor=none;top=0;left=0;bottom=0;right=0;overflow=hidden;" vertex="1" parent="folOr7VXah5515mHTYtm-5">
          <mxGeometry width="40" height="50" as="geometry">
            <mxRectangle width="40" height="50" as="alternateBounds" />
          </mxGeometry>
        </mxCell>
        <mxCell id="folOr7VXah5515mHTYtm-7" value="amount(INT)&lt;br&gt;" style="shape=partialRectangle;html=1;whiteSpace=wrap;connectable=0;fillColor=none;top=0;left=0;bottom=0;right=0;align=left;spacingLeft=6;overflow=hidden;" vertex="1" parent="folOr7VXah5515mHTYtm-5">
          <mxGeometry x="40" width="210" height="50" as="geometry">
            <mxRectangle width="210" height="50" as="alternateBounds" />
          </mxGeometry>
        </mxCell>
        <mxCell id="folOr7VXah5515mHTYtm-8" value="" style="shape=partialRectangle;html=1;whiteSpace=wrap;collapsible=0;dropTarget=0;pointerEvents=0;fillColor=none;top=0;left=0;bottom=0;right=0;points=[[0,0.5],[1,0.5]];portConstraint=eastwest;" vertex="1" parent="folOr7VXah5515mHTYtm-1">
          <mxGeometry y="130" width="250.00000000000045" height="30" as="geometry" />
        </mxCell>
        <mxCell id="folOr7VXah5515mHTYtm-9" value="" style="shape=partialRectangle;html=1;whiteSpace=wrap;connectable=0;fillColor=none;top=0;left=0;bottom=0;right=0;overflow=hidden;" vertex="1" parent="folOr7VXah5515mHTYtm-8">
          <mxGeometry width="40" height="30" as="geometry">
            <mxRectangle width="40" height="30" as="alternateBounds" />
          </mxGeometry>
        </mxCell>
        <mxCell id="folOr7VXah5515mHTYtm-10" value="walrus(INT)&lt;br&gt;name&amp;nbsp;" style="shape=partialRectangle;html=1;whiteSpace=wrap;connectable=0;fillColor=none;top=0;left=0;bottom=0;right=0;align=left;spacingLeft=6;overflow=hidden;" vertex="1" parent="folOr7VXah5515mHTYtm-8">
          <mxGeometry x="40" width="210" height="30" as="geometry">
            <mxRectangle width="210" height="30" as="alternateBounds" />
          </mxGeometry>
        </mxCell>
        <mxCell id="folOr7VXah5515mHTYtm-11" value="This table stores items and how much has it bought,&lt;br&gt;&amp;nbsp;who has bought it.&lt;br&gt;The goal is to find out which goods are popular" style="text;html=1;align=center;verticalAlign=middle;resizable=0;points=[];autosize=1;strokeColor=none;fillColor=none;" vertex="1" parent="1">
          <mxGeometry x="-470" y="883" width="300" height="60" as="geometry" />
        </mxCell>
        <mxCell id="folOr7VXah5515mHTYtm-31" value="Subbotnik" style="shape=table;html=1;whiteSpace=wrap;startSize=30;container=1;collapsible=0;childLayout=tableLayout;fixedRows=1;rowLines=0;fontStyle=1;align=center;" vertex="1" parent="1">
          <mxGeometry x="-250" y="1220" width="250.00000000000045" height="190" as="geometry" />
        </mxCell>
        <mxCell id="folOr7VXah5515mHTYtm-32" value="" style="shape=partialRectangle;html=1;whiteSpace=wrap;collapsible=0;dropTarget=0;pointerEvents=0;fillColor=none;top=0;left=0;bottom=1;right=0;points=[[0,0.5],[1,0.5]];portConstraint=eastwest;" vertex="1" parent="folOr7VXah5515mHTYtm-31">
          <mxGeometry y="30" width="250.00000000000045" height="50" as="geometry" />
        </mxCell>
        <mxCell id="folOr7VXah5515mHTYtm-33" value="PK" style="shape=partialRectangle;html=1;whiteSpace=wrap;connectable=0;fillColor=none;top=0;left=0;bottom=0;right=0;overflow=hidden;" vertex="1" parent="folOr7VXah5515mHTYtm-32">
          <mxGeometry width="40" height="50" as="geometry">
            <mxRectangle width="40" height="50" as="alternateBounds" />
          </mxGeometry>
        </mxCell>
        <mxCell id="folOr7VXah5515mHTYtm-34" value="subbotnik_id((INT PRIMARY KEY AUTO_INCREMENT)&lt;br&gt;)" style="shape=partialRectangle;html=1;whiteSpace=wrap;connectable=0;fillColor=none;top=0;left=0;bottom=0;right=0;align=left;spacingLeft=6;overflow=hidden;" vertex="1" parent="folOr7VXah5515mHTYtm-32">
          <mxGeometry x="40" width="210" height="50" as="geometry">
            <mxRectangle width="210" height="50" as="alternateBounds" />
          </mxGeometry>
        </mxCell>
        <mxCell id="folOr7VXah5515mHTYtm-35" value="" style="shape=partialRectangle;html=1;whiteSpace=wrap;collapsible=0;dropTarget=0;pointerEvents=0;fillColor=none;top=0;left=0;bottom=0;right=0;points=[[0,0.5],[1,0.5]];portConstraint=eastwest;" vertex="1" parent="folOr7VXah5515mHTYtm-31">
          <mxGeometry y="80" width="250.00000000000045" height="50" as="geometry" />
        </mxCell>
        <mxCell id="folOr7VXah5515mHTYtm-36" value="" style="shape=partialRectangle;html=1;whiteSpace=wrap;connectable=0;fillColor=none;top=0;left=0;bottom=0;right=0;overflow=hidden;" vertex="1" parent="folOr7VXah5515mHTYtm-35">
          <mxGeometry width="40" height="50" as="geometry">
            <mxRectangle width="40" height="50" as="alternateBounds" />
          </mxGeometry>
        </mxCell>
        <mxCell id="folOr7VXah5515mHTYtm-37" value="amount_of_people(INT)" style="shape=partialRectangle;html=1;whiteSpace=wrap;connectable=0;fillColor=none;top=0;left=0;bottom=0;right=0;align=left;spacingLeft=6;overflow=hidden;" vertex="1" parent="folOr7VXah5515mHTYtm-35">
          <mxGeometry x="40" width="210" height="50" as="geometry">
            <mxRectangle width="210" height="50" as="alternateBounds" />
          </mxGeometry>
        </mxCell>
        <mxCell id="folOr7VXah5515mHTYtm-38" value="" style="shape=partialRectangle;html=1;whiteSpace=wrap;collapsible=0;dropTarget=0;pointerEvents=0;fillColor=none;top=0;left=0;bottom=0;right=0;points=[[0,0.5],[1,0.5]];portConstraint=eastwest;" vertex="1" parent="folOr7VXah5515mHTYtm-31">
          <mxGeometry y="130" width="250.00000000000045" height="30" as="geometry" />
        </mxCell>
        <mxCell id="folOr7VXah5515mHTYtm-39" value="" style="shape=partialRectangle;html=1;whiteSpace=wrap;connectable=0;fillColor=none;top=0;left=0;bottom=0;right=0;overflow=hidden;" vertex="1" parent="folOr7VXah5515mHTYtm-38">
          <mxGeometry width="40" height="30" as="geometry">
            <mxRectangle width="40" height="30" as="alternateBounds" />
          </mxGeometry>
        </mxCell>
        <mxCell id="folOr7VXah5515mHTYtm-40" value="who_was(VARCHAR(100))" style="shape=partialRectangle;html=1;whiteSpace=wrap;connectable=0;fillColor=none;top=0;left=0;bottom=0;right=0;align=left;spacingLeft=6;overflow=hidden;" vertex="1" parent="folOr7VXah5515mHTYtm-38">
          <mxGeometry x="40" width="210" height="30" as="geometry">
            <mxRectangle width="210" height="30" as="alternateBounds" />
          </mxGeometry>
        </mxCell>
        <mxCell id="folOr7VXah5515mHTYtm-51" value="competition" style="shape=table;html=1;whiteSpace=wrap;startSize=30;container=1;collapsible=0;childLayout=tableLayout;fixedRows=1;rowLines=0;fontStyle=1;align=center;" vertex="1" parent="1">
          <mxGeometry x="70" y="1195" width="230" height="200.00000000000023" as="geometry" />
        </mxCell>
        <mxCell id="folOr7VXah5515mHTYtm-52" value="" style="shape=partialRectangle;html=1;whiteSpace=wrap;collapsible=0;dropTarget=0;pointerEvents=0;fillColor=none;top=0;left=0;bottom=1;right=0;points=[[0,0.5],[1,0.5]];portConstraint=eastwest;" vertex="1" parent="folOr7VXah5515mHTYtm-51">
          <mxGeometry y="30" width="230" height="30" as="geometry" />
        </mxCell>
        <mxCell id="folOr7VXah5515mHTYtm-53" value="PK" style="shape=partialRectangle;html=1;whiteSpace=wrap;connectable=0;fillColor=none;top=0;left=0;bottom=0;right=0;overflow=hidden;" vertex="1" parent="folOr7VXah5515mHTYtm-52">
          <mxGeometry width="40" height="30" as="geometry">
            <mxRectangle width="40" height="30" as="alternateBounds" />
          </mxGeometry>
        </mxCell>
        <mxCell id="folOr7VXah5515mHTYtm-54" value="competition_id(class_id(INT PRIMARY KEY AUTO_INCREMENT&lt;br&gt;)&lt;br&gt;)" style="shape=partialRectangle;html=1;whiteSpace=wrap;connectable=0;fillColor=none;top=0;left=0;bottom=0;right=0;align=left;spacingLeft=6;overflow=hidden;" vertex="1" parent="folOr7VXah5515mHTYtm-52">
          <mxGeometry x="40" width="190" height="30" as="geometry">
            <mxRectangle width="190" height="30" as="alternateBounds" />
          </mxGeometry>
        </mxCell>
        <mxCell id="folOr7VXah5515mHTYtm-55" value="" style="shape=partialRectangle;html=1;whiteSpace=wrap;collapsible=0;dropTarget=0;pointerEvents=0;fillColor=none;top=0;left=0;bottom=0;right=0;points=[[0,0.5],[1,0.5]];portConstraint=eastwest;" vertex="1" parent="folOr7VXah5515mHTYtm-51">
          <mxGeometry y="60" width="230" height="60" as="geometry" />
        </mxCell>
        <mxCell id="folOr7VXah5515mHTYtm-56" value="" style="shape=partialRectangle;html=1;whiteSpace=wrap;connectable=0;fillColor=none;top=0;left=0;bottom=0;right=0;overflow=hidden;" vertex="1" parent="folOr7VXah5515mHTYtm-55">
          <mxGeometry width="40" height="60" as="geometry">
            <mxRectangle width="40" height="60" as="alternateBounds" />
          </mxGeometry>
        </mxCell>
        <mxCell id="folOr7VXah5515mHTYtm-57" value="who_was(VARCHAR(100))" style="shape=partialRectangle;html=1;whiteSpace=wrap;connectable=0;fillColor=none;top=0;left=0;bottom=0;right=0;align=left;spacingLeft=6;overflow=hidden;" vertex="1" parent="folOr7VXah5515mHTYtm-55">
          <mxGeometry x="40" width="190" height="60" as="geometry">
            <mxRectangle width="190" height="60" as="alternateBounds" />
          </mxGeometry>
        </mxCell>
        <mxCell id="folOr7VXah5515mHTYtm-58" value="" style="shape=partialRectangle;html=1;whiteSpace=wrap;collapsible=0;dropTarget=0;pointerEvents=0;fillColor=none;top=0;left=0;bottom=0;right=0;points=[[0,0.5],[1,0.5]];portConstraint=eastwest;" vertex="1" parent="folOr7VXah5515mHTYtm-51">
          <mxGeometry y="120" width="230" height="50" as="geometry" />
        </mxCell>
        <mxCell id="folOr7VXah5515mHTYtm-59" value="" style="shape=partialRectangle;html=1;whiteSpace=wrap;connectable=0;fillColor=none;top=0;left=0;bottom=0;right=0;overflow=hidden;" vertex="1" parent="folOr7VXah5515mHTYtm-58">
          <mxGeometry width="40" height="50" as="geometry">
            <mxRectangle width="40" height="50" as="alternateBounds" />
          </mxGeometry>
        </mxCell>
        <mxCell id="folOr7VXah5515mHTYtm-60" value="Place(INT)&lt;br&gt;Amount_of_people(INT)" style="shape=partialRectangle;html=1;whiteSpace=wrap;connectable=0;fillColor=none;top=0;left=0;bottom=0;right=0;align=left;spacingLeft=6;overflow=hidden;" vertex="1" parent="folOr7VXah5515mHTYtm-58">
          <mxGeometry x="40" width="190" height="50" as="geometry">
            <mxRectangle width="190" height="50" as="alternateBounds" />
          </mxGeometry>
        </mxCell>
        <mxCell id="folOr7VXah5515mHTYtm-61" value="" style="shape=partialRectangle;html=1;whiteSpace=wrap;collapsible=0;dropTarget=0;pointerEvents=0;fillColor=none;top=0;left=0;bottom=0;right=0;points=[[0,0.5],[1,0.5]];portConstraint=eastwest;" vertex="1" parent="folOr7VXah5515mHTYtm-51">
          <mxGeometry y="170" width="230" height="30" as="geometry" />
        </mxCell>
        <mxCell id="folOr7VXah5515mHTYtm-62" value="" style="shape=partialRectangle;html=1;whiteSpace=wrap;connectable=0;fillColor=none;top=0;left=0;bottom=0;right=0;overflow=hidden;" vertex="1" parent="folOr7VXah5515mHTYtm-61">
          <mxGeometry width="40" height="30" as="geometry">
            <mxRectangle width="40" height="30" as="alternateBounds" />
          </mxGeometry>
        </mxCell>
        <mxCell id="folOr7VXah5515mHTYtm-63" value="Name_of_event" style="shape=partialRectangle;html=1;whiteSpace=wrap;connectable=0;fillColor=none;top=0;left=0;bottom=0;right=0;align=left;spacingLeft=6;overflow=hidden;" vertex="1" parent="folOr7VXah5515mHTYtm-61">
          <mxGeometry x="40" width="190" height="30" as="geometry">
            <mxRectangle width="190" height="30" as="alternateBounds" />
          </mxGeometry>
        </mxCell>
        <mxCell id="folOr7VXah5515mHTYtm-64" value="Olimpiada" style="shape=table;html=1;whiteSpace=wrap;startSize=30;container=1;collapsible=0;childLayout=tableLayout;fixedRows=1;rowLines=0;fontStyle=1;align=center;" vertex="1" parent="1">
          <mxGeometry x="70" y="970" width="230" height="200.00000000000023" as="geometry" />
        </mxCell>
        <mxCell id="folOr7VXah5515mHTYtm-65" value="" style="shape=partialRectangle;html=1;whiteSpace=wrap;collapsible=0;dropTarget=0;pointerEvents=0;fillColor=none;top=0;left=0;bottom=1;right=0;points=[[0,0.5],[1,0.5]];portConstraint=eastwest;" vertex="1" parent="folOr7VXah5515mHTYtm-64">
          <mxGeometry y="30" width="230" height="30" as="geometry" />
        </mxCell>
        <mxCell id="folOr7VXah5515mHTYtm-66" value="PK" style="shape=partialRectangle;html=1;whiteSpace=wrap;connectable=0;fillColor=none;top=0;left=0;bottom=0;right=0;overflow=hidden;" vertex="1" parent="folOr7VXah5515mHTYtm-65">
          <mxGeometry width="40" height="30" as="geometry">
            <mxRectangle width="40" height="30" as="alternateBounds" />
          </mxGeometry>
        </mxCell>
        <mxCell id="folOr7VXah5515mHTYtm-67" value="Olimpiada_id(class_id(INT PRIMARY KEY AUTO_INCREMENT&lt;br&gt;)&lt;br&gt;)" style="shape=partialRectangle;html=1;whiteSpace=wrap;connectable=0;fillColor=none;top=0;left=0;bottom=0;right=0;align=left;spacingLeft=6;overflow=hidden;" vertex="1" parent="folOr7VXah5515mHTYtm-65">
          <mxGeometry x="40" width="190" height="30" as="geometry">
            <mxRectangle width="190" height="30" as="alternateBounds" />
          </mxGeometry>
        </mxCell>
        <mxCell id="folOr7VXah5515mHTYtm-68" value="" style="shape=partialRectangle;html=1;whiteSpace=wrap;collapsible=0;dropTarget=0;pointerEvents=0;fillColor=none;top=0;left=0;bottom=0;right=0;points=[[0,0.5],[1,0.5]];portConstraint=eastwest;" vertex="1" parent="folOr7VXah5515mHTYtm-64">
          <mxGeometry y="60" width="230" height="60" as="geometry" />
        </mxCell>
        <mxCell id="folOr7VXah5515mHTYtm-69" value="" style="shape=partialRectangle;html=1;whiteSpace=wrap;connectable=0;fillColor=none;top=0;left=0;bottom=0;right=0;overflow=hidden;" vertex="1" parent="folOr7VXah5515mHTYtm-68">
          <mxGeometry width="40" height="60" as="geometry">
            <mxRectangle width="40" height="60" as="alternateBounds" />
          </mxGeometry>
        </mxCell>
        <mxCell id="folOr7VXah5515mHTYtm-70" value="student_id(((INT NOT NULL))&lt;br style=&quot;border-color: var(--border-color);&quot;&gt;)" style="shape=partialRectangle;html=1;whiteSpace=wrap;connectable=0;fillColor=none;top=0;left=0;bottom=0;right=0;align=left;spacingLeft=6;overflow=hidden;" vertex="1" parent="folOr7VXah5515mHTYtm-68">
          <mxGeometry x="40" width="190" height="60" as="geometry">
            <mxRectangle width="190" height="60" as="alternateBounds" />
          </mxGeometry>
        </mxCell>
        <mxCell id="folOr7VXah5515mHTYtm-71" value="" style="shape=partialRectangle;html=1;whiteSpace=wrap;collapsible=0;dropTarget=0;pointerEvents=0;fillColor=none;top=0;left=0;bottom=0;right=0;points=[[0,0.5],[1,0.5]];portConstraint=eastwest;" vertex="1" parent="folOr7VXah5515mHTYtm-64">
          <mxGeometry y="120" width="230" height="50" as="geometry" />
        </mxCell>
        <mxCell id="folOr7VXah5515mHTYtm-72" value="" style="shape=partialRectangle;html=1;whiteSpace=wrap;connectable=0;fillColor=none;top=0;left=0;bottom=0;right=0;overflow=hidden;" vertex="1" parent="folOr7VXah5515mHTYtm-71">
          <mxGeometry width="40" height="50" as="geometry">
            <mxRectangle width="40" height="50" as="alternateBounds" />
          </mxGeometry>
        </mxCell>
        <mxCell id="folOr7VXah5515mHTYtm-73" value="Place(INT)&lt;br&gt;" style="shape=partialRectangle;html=1;whiteSpace=wrap;connectable=0;fillColor=none;top=0;left=0;bottom=0;right=0;align=left;spacingLeft=6;overflow=hidden;" vertex="1" parent="folOr7VXah5515mHTYtm-71">
          <mxGeometry x="40" width="190" height="50" as="geometry">
            <mxRectangle width="190" height="50" as="alternateBounds" />
          </mxGeometry>
        </mxCell>
        <mxCell id="folOr7VXah5515mHTYtm-74" value="" style="shape=partialRectangle;html=1;whiteSpace=wrap;collapsible=0;dropTarget=0;pointerEvents=0;fillColor=none;top=0;left=0;bottom=0;right=0;points=[[0,0.5],[1,0.5]];portConstraint=eastwest;" vertex="1" parent="folOr7VXah5515mHTYtm-64">
          <mxGeometry y="170" width="230" height="30" as="geometry" />
        </mxCell>
        <mxCell id="folOr7VXah5515mHTYtm-75" value="" style="shape=partialRectangle;html=1;whiteSpace=wrap;connectable=0;fillColor=none;top=0;left=0;bottom=0;right=0;overflow=hidden;" vertex="1" parent="folOr7VXah5515mHTYtm-74">
          <mxGeometry width="40" height="30" as="geometry">
            <mxRectangle width="40" height="30" as="alternateBounds" />
          </mxGeometry>
        </mxCell>
        <mxCell id="folOr7VXah5515mHTYtm-76" value="Name_of_event" style="shape=partialRectangle;html=1;whiteSpace=wrap;connectable=0;fillColor=none;top=0;left=0;bottom=0;right=0;align=left;spacingLeft=6;overflow=hidden;" vertex="1" parent="folOr7VXah5515mHTYtm-74">
          <mxGeometry x="40" width="190" height="30" as="geometry">
            <mxRectangle width="190" height="30" as="alternateBounds" />
          </mxGeometry>
        </mxCell>
        <mxCell id="folOr7VXah5515mHTYtm-78" value="high_school_graduation" style="shape=table;html=1;whiteSpace=wrap;startSize=30;container=1;collapsible=0;childLayout=tableLayout;fixedRows=1;rowLines=0;fontStyle=1;align=center;" vertex="1" parent="1">
          <mxGeometry x="-584" y="960" width="230" height="200.00000000000023" as="geometry" />
        </mxCell>
        <mxCell id="folOr7VXah5515mHTYtm-79" value="" style="shape=partialRectangle;html=1;whiteSpace=wrap;collapsible=0;dropTarget=0;pointerEvents=0;fillColor=none;top=0;left=0;bottom=1;right=0;points=[[0,0.5],[1,0.5]];portConstraint=eastwest;" vertex="1" parent="folOr7VXah5515mHTYtm-78">
          <mxGeometry y="30" width="230" height="30" as="geometry" />
        </mxCell>
        <mxCell id="folOr7VXah5515mHTYtm-80" value="PK" style="shape=partialRectangle;html=1;whiteSpace=wrap;connectable=0;fillColor=none;top=0;left=0;bottom=0;right=0;overflow=hidden;" vertex="1" parent="folOr7VXah5515mHTYtm-79">
          <mxGeometry width="40" height="30" as="geometry">
            <mxRectangle width="40" height="30" as="alternateBounds" />
          </mxGeometry>
        </mxCell>
        <mxCell id="folOr7VXah5515mHTYtm-81" value="high_school_graduation_id(class_id(INT PRIMARY KEY AUTO_INCREMENT&lt;br&gt;)&lt;br&gt;)" style="shape=partialRectangle;html=1;whiteSpace=wrap;connectable=0;fillColor=none;top=0;left=0;bottom=0;right=0;align=left;spacingLeft=6;overflow=hidden;" vertex="1" parent="folOr7VXah5515mHTYtm-79">
          <mxGeometry x="40" width="190" height="30" as="geometry">
            <mxRectangle width="190" height="30" as="alternateBounds" />
          </mxGeometry>
        </mxCell>
        <mxCell id="folOr7VXah5515mHTYtm-82" value="" style="shape=partialRectangle;html=1;whiteSpace=wrap;collapsible=0;dropTarget=0;pointerEvents=0;fillColor=none;top=0;left=0;bottom=0;right=0;points=[[0,0.5],[1,0.5]];portConstraint=eastwest;" vertex="1" parent="folOr7VXah5515mHTYtm-78">
          <mxGeometry y="60" width="230" height="60" as="geometry" />
        </mxCell>
        <mxCell id="folOr7VXah5515mHTYtm-83" value="FK" style="shape=partialRectangle;html=1;whiteSpace=wrap;connectable=0;fillColor=none;top=0;left=0;bottom=0;right=0;overflow=hidden;" vertex="1" parent="folOr7VXah5515mHTYtm-82">
          <mxGeometry width="40" height="60" as="geometry">
            <mxRectangle width="40" height="60" as="alternateBounds" />
          </mxGeometry>
        </mxCell>
        <mxCell id="folOr7VXah5515mHTYtm-84" value="class_id(((INT NOT NULL))&lt;br&gt;)" style="shape=partialRectangle;html=1;whiteSpace=wrap;connectable=0;fillColor=none;top=0;left=0;bottom=0;right=0;align=left;spacingLeft=6;overflow=hidden;" vertex="1" parent="folOr7VXah5515mHTYtm-82">
          <mxGeometry x="40" width="190" height="60" as="geometry">
            <mxRectangle width="190" height="60" as="alternateBounds" />
          </mxGeometry>
        </mxCell>
        <mxCell id="folOr7VXah5515mHTYtm-85" value="" style="shape=partialRectangle;html=1;whiteSpace=wrap;collapsible=0;dropTarget=0;pointerEvents=0;fillColor=none;top=0;left=0;bottom=0;right=0;points=[[0,0.5],[1,0.5]];portConstraint=eastwest;" vertex="1" parent="folOr7VXah5515mHTYtm-78">
          <mxGeometry y="120" width="230" height="50" as="geometry" />
        </mxCell>
        <mxCell id="folOr7VXah5515mHTYtm-86" value="" style="shape=partialRectangle;html=1;whiteSpace=wrap;connectable=0;fillColor=none;top=0;left=0;bottom=0;right=0;overflow=hidden;" vertex="1" parent="folOr7VXah5515mHTYtm-85">
          <mxGeometry width="40" height="50" as="geometry">
            <mxRectangle width="40" height="50" as="alternateBounds" />
          </mxGeometry>
        </mxCell>
        <mxCell id="folOr7VXah5515mHTYtm-87" value="amount_of_people&lt;br style=&quot;border-color: var(--border-color);&quot;&gt;Money&lt;br style=&quot;border-color: var(--border-color);&quot;&gt;when_will_it_be&lt;br style=&quot;border-color: var(--border-color);&quot;&gt;special_guests" style="shape=partialRectangle;html=1;whiteSpace=wrap;connectable=0;fillColor=none;top=0;left=0;bottom=0;right=0;align=left;spacingLeft=6;overflow=hidden;" vertex="1" parent="folOr7VXah5515mHTYtm-85">
          <mxGeometry x="40" width="190" height="50" as="geometry">
            <mxRectangle width="190" height="50" as="alternateBounds" />
          </mxGeometry>
        </mxCell>
        <mxCell id="folOr7VXah5515mHTYtm-88" value="" style="shape=partialRectangle;html=1;whiteSpace=wrap;collapsible=0;dropTarget=0;pointerEvents=0;fillColor=none;top=0;left=0;bottom=0;right=0;points=[[0,0.5],[1,0.5]];portConstraint=eastwest;" vertex="1" parent="folOr7VXah5515mHTYtm-78">
          <mxGeometry y="170" width="230" height="30" as="geometry" />
        </mxCell>
        <mxCell id="folOr7VXah5515mHTYtm-89" value="FK" style="shape=partialRectangle;html=1;whiteSpace=wrap;connectable=0;fillColor=none;top=0;left=0;bottom=0;right=0;overflow=hidden;" vertex="1" parent="folOr7VXah5515mHTYtm-88">
          <mxGeometry width="40" height="30" as="geometry">
            <mxRectangle width="40" height="30" as="alternateBounds" />
          </mxGeometry>
        </mxCell>
        <mxCell id="folOr7VXah5515mHTYtm-90" value="who_was((INT UNIQUE NOT NULL))" style="shape=partialRectangle;html=1;whiteSpace=wrap;connectable=0;fillColor=none;top=0;left=0;bottom=0;right=0;align=left;spacingLeft=6;overflow=hidden;" vertex="1" parent="folOr7VXah5515mHTYtm-88">
          <mxGeometry x="40" width="190" height="30" as="geometry">
            <mxRectangle width="190" height="30" as="alternateBounds" />
          </mxGeometry>
        </mxCell>
        <mxCell id="folOr7VXah5515mHTYtm-94" value="Graduates" style="shape=table;html=1;whiteSpace=wrap;startSize=30;container=1;collapsible=0;childLayout=tableLayout;fixedRows=1;rowLines=0;fontStyle=1;align=center;" vertex="1" parent="1">
          <mxGeometry x="680" y="1000" width="230" height="200.00000000000023" as="geometry" />
        </mxCell>
        <mxCell id="folOr7VXah5515mHTYtm-95" value="" style="shape=partialRectangle;html=1;whiteSpace=wrap;collapsible=0;dropTarget=0;pointerEvents=0;fillColor=none;top=0;left=0;bottom=1;right=0;points=[[0,0.5],[1,0.5]];portConstraint=eastwest;" vertex="1" parent="folOr7VXah5515mHTYtm-94">
          <mxGeometry y="30" width="230" height="30" as="geometry" />
        </mxCell>
        <mxCell id="folOr7VXah5515mHTYtm-96" value="PK" style="shape=partialRectangle;html=1;whiteSpace=wrap;connectable=0;fillColor=none;top=0;left=0;bottom=0;right=0;overflow=hidden;" vertex="1" parent="folOr7VXah5515mHTYtm-95">
          <mxGeometry width="40" height="30" as="geometry">
            <mxRectangle width="40" height="30" as="alternateBounds" />
          </mxGeometry>
        </mxCell>
        <mxCell id="folOr7VXah5515mHTYtm-97" value="Graduates_id(class_id(INT PRIMARY KEY AUTO_INCREMENT&lt;br&gt;)&lt;br&gt;)" style="shape=partialRectangle;html=1;whiteSpace=wrap;connectable=0;fillColor=none;top=0;left=0;bottom=0;right=0;align=left;spacingLeft=6;overflow=hidden;" vertex="1" parent="folOr7VXah5515mHTYtm-95">
          <mxGeometry x="40" width="190" height="30" as="geometry">
            <mxRectangle width="190" height="30" as="alternateBounds" />
          </mxGeometry>
        </mxCell>
        <mxCell id="folOr7VXah5515mHTYtm-98" value="" style="shape=partialRectangle;html=1;whiteSpace=wrap;collapsible=0;dropTarget=0;pointerEvents=0;fillColor=none;top=0;left=0;bottom=0;right=0;points=[[0,0.5],[1,0.5]];portConstraint=eastwest;" vertex="1" parent="folOr7VXah5515mHTYtm-94">
          <mxGeometry y="60" width="230" height="60" as="geometry" />
        </mxCell>
        <mxCell id="folOr7VXah5515mHTYtm-99" value="" style="shape=partialRectangle;html=1;whiteSpace=wrap;connectable=0;fillColor=none;top=0;left=0;bottom=0;right=0;overflow=hidden;" vertex="1" parent="folOr7VXah5515mHTYtm-98">
          <mxGeometry width="40" height="60" as="geometry">
            <mxRectangle width="40" height="60" as="alternateBounds" />
          </mxGeometry>
        </mxCell>
        <mxCell id="folOr7VXah5515mHTYtm-100" value="student_id(((INT NOT NULL))&lt;br style=&quot;border-color: var(--border-color);&quot;&gt;)" style="shape=partialRectangle;html=1;whiteSpace=wrap;connectable=0;fillColor=none;top=0;left=0;bottom=0;right=0;align=left;spacingLeft=6;overflow=hidden;" vertex="1" parent="folOr7VXah5515mHTYtm-98">
          <mxGeometry x="40" width="190" height="60" as="geometry">
            <mxRectangle width="190" height="60" as="alternateBounds" />
          </mxGeometry>
        </mxCell>
        <mxCell id="folOr7VXah5515mHTYtm-101" value="" style="shape=partialRectangle;html=1;whiteSpace=wrap;collapsible=0;dropTarget=0;pointerEvents=0;fillColor=none;top=0;left=0;bottom=0;right=0;points=[[0,0.5],[1,0.5]];portConstraint=eastwest;" vertex="1" parent="folOr7VXah5515mHTYtm-94">
          <mxGeometry y="120" width="230" height="50" as="geometry" />
        </mxCell>
        <mxCell id="folOr7VXah5515mHTYtm-102" value="" style="shape=partialRectangle;html=1;whiteSpace=wrap;connectable=0;fillColor=none;top=0;left=0;bottom=0;right=0;overflow=hidden;" vertex="1" parent="folOr7VXah5515mHTYtm-101">
          <mxGeometry width="40" height="50" as="geometry">
            <mxRectangle width="40" height="50" as="alternateBounds" />
          </mxGeometry>
        </mxCell>
        <mxCell id="folOr7VXah5515mHTYtm-103" value="univesrdity&lt;br&gt;CT&lt;br&gt;specialization" style="shape=partialRectangle;html=1;whiteSpace=wrap;connectable=0;fillColor=none;top=0;left=0;bottom=0;right=0;align=left;spacingLeft=6;overflow=hidden;" vertex="1" parent="folOr7VXah5515mHTYtm-101">
          <mxGeometry x="40" width="190" height="50" as="geometry">
            <mxRectangle width="190" height="50" as="alternateBounds" />
          </mxGeometry>
        </mxCell>
        <mxCell id="folOr7VXah5515mHTYtm-104" value="" style="shape=partialRectangle;html=1;whiteSpace=wrap;collapsible=0;dropTarget=0;pointerEvents=0;fillColor=none;top=0;left=0;bottom=0;right=0;points=[[0,0.5],[1,0.5]];portConstraint=eastwest;" vertex="1" parent="folOr7VXah5515mHTYtm-94">
          <mxGeometry y="170" width="230" height="30" as="geometry" />
        </mxCell>
        <mxCell id="folOr7VXah5515mHTYtm-105" value="" style="shape=partialRectangle;html=1;whiteSpace=wrap;connectable=0;fillColor=none;top=0;left=0;bottom=0;right=0;overflow=hidden;" vertex="1" parent="folOr7VXah5515mHTYtm-104">
          <mxGeometry width="40" height="30" as="geometry">
            <mxRectangle width="40" height="30" as="alternateBounds" />
          </mxGeometry>
        </mxCell>
        <mxCell id="folOr7VXah5515mHTYtm-106" value="Name_of_event" style="shape=partialRectangle;html=1;whiteSpace=wrap;connectable=0;fillColor=none;top=0;left=0;bottom=0;right=0;align=left;spacingLeft=6;overflow=hidden;" vertex="1" parent="folOr7VXah5515mHTYtm-104">
          <mxGeometry x="40" width="190" height="30" as="geometry">
            <mxRectangle width="190" height="30" as="alternateBounds" />
          </mxGeometry>
        </mxCell>
      </root>
    </mxGraphModel>
  </diagram>
</mxfile>
